<svg width="24" height="24" viewBox="0 0 24 24" fill="none" xmlns="http://www.w3.org/2000/svg">
  <!-- Flame icon representing profiling/performance -->
  <path d="M12 2C12 2 8 6 8 10C8 12.21 9.79 14 12 14C14.21 14 16 12.21 16 10C16 6 12 2 12 2Z" fill="#FF6B6B" stroke="#FF6B6B" stroke-width="1.5" stroke-linecap="round" stroke-linejoin="round"/>
  <path d="M12 14C12 14 10 16 10 18C10 19.1 10.9 20 12 20C13.1 20 14 19.1 14 18C14 16 12 14 12 14Z" fill="#FFA500" stroke="#FFA500" stroke-width="1.5" stroke-linecap="round" stroke-linejoin="round"/>
  <path d="M7 12C7 12 5 14 5 16C5 17.1 5.9 18 7 18C8.1 18 9 17.1 9 16C9 14 7 12 7 12Z" fill="#FFD93D" stroke="#FFD93D" stroke-width="1.5" stroke-linecap="round" stroke-linejoin="round"/>
  <path d="M17 12C17 12 15 14 15 16C15 17.1 15.9 18 17 18C18.1 18 19 17.1 19 16C19 14 17 12 17 12Z" fill="#FFD93D" stroke="#FFD93D" stroke-width="1.5" stroke-linecap="round" stroke-linejoin="round"/>
</svg>
